<svg version="1" xmlns="http://www.w3.org/2000/svg" width="1333.333" height="1333.333" viewBox="0 0 1000.000000 1000.000000"><path d="M0 500v500h1000V0H0v500zm580.5-269.3c17.6 5.7 39.5 12.9 48.8 15.9l16.7 5.6v144.3l-127.8 76.2c-70.2 41.9-127.8 76.1-127.9 75.9-1-1 82.8-181.3 128.2-275.9 23.6-49.1 26-53.7 27.9-53.1 1.2.4 16.5 5.3 34.1 11.1zm-69.1 37.9c-55.4 115.2-156.6 335-160.2 347.9-2.2 8-4.3 22.4-5.7 39.3-2.6 30.4-7.3 41.5-20.3 47.9-5.2 2.6-6.7 2.8-16.7 2.8-8.2 0-12-.4-14.8-1.7l-3.8-1.8 5.3-5.2c8.2-8.1 11-15.7 11.5-31.8.4-11.4 0-14.7-4-37.5-4-22.2-7.8-37.3-33.7-132.9l-29.1-108 5.9-8.5c3.2-4.8 17.7-26.2 32.2-47.6 14.5-21.5 26.5-39.2 26.7-39.4.3-.5 228.7-70.9 229-70.6.2.1-9.9 21.2-22.3 47.1zm270.4 116.2l122 84.3-126 154.1C708.5 707.9 651.4 776.8 651 776.3c-2.2-2.4-148-284.7-147.3-285.3.4-.4 33.2-19.9 72.8-43.5 39.6-23.6 73.2-43.7 74.8-44.7l2.7-1.9V296.8l2.8 1.9c1.6 1 57.8 39.7 125 86.1zM246.9 448c27.9 101.5 44.3 161.8 44.7 165.4.6 4-.7 6.2-39.3 68.6-25.3 41-39.9 63.8-40.1 62.5-.3-2 23.2-315.3 24.4-325.5.4-3 .8-5.1 1-4.5.2.5 4.4 15.6 9.3 33.5zm592.7 189.1l-56.3 144.4-62.2.3c-52.6.2-62.1 0-61.4-1.2 1.3-2.1 235.7-288.5 236-288.2.2.1-25.1 65.2-56.1 144.7zm-296.1-49.6l47.2 90.9-8.2 17c-4.6 9.4-16 32.7-25.4 51.8L539.9 782H435.1l-1.5-5.3c-.8-2.8-13.2-50.4-27.6-105.7l-26.2-100.5 2-3.9c1.7-3.7 5.8-6.4 57.3-37.2 30.5-18.3 55.8-33.1 56.3-33 .4.1 22.1 41.1 48.1 91.1zm-405.2 50.4c-.4.5-31.3 4-35.4 4.1h-2.6l-.7-14.8c-1.1-24.4-3.5-86.6-4-104.2l-.5-16.5 21.8 65.5c12 36 21.6 65.7 21.4 65.9zm73.2 3.8c-.2 1.6-2.3 28-4.6 58.8-2.3 30.8-4.3 56.2-4.5 56.4-.1.2-16.2-8.3-35.6-18.8L131.5 719l-14.7-34.2c-8.1-18.8-14.6-34.3-14.5-34.4.4-.3 102.5-11.2 105.9-11.3 3.6-.1 3.7 0 3.3 2.6z"/><path d="M328.7 444.1c-9.1 1.4-17.9 8.9-21.4 18.2-3.3 8.9-.2 21.4 7 28.5 13.9 13.7 36.2 9.3 44.5-8.6 2.1-4.6 2.4-6.5 2-12.6-.5-7.7-2.1-11.6-7-17.1-5.8-6.6-15.3-9.8-25.1-8.4z"/></svg>