<?xml version="1.0" encoding="UTF-8"?>
<svg width="500px" height="200px" viewBox="0 0 500 200" version="1.1" xmlns="http://www.w3.org/2000/svg" xmlns:xlink="http://www.w3.org/1999/xlink">
    <!-- Generator: Sketch 52.5 (67469) - http://www.bohemiancoding.com/sketch -->
    <title>PD</title>
    <desc>Created with Sketch.</desc>
    <defs>
        <polygon id="path-1" points="0 200.070094 459 200.070094 459 0.841758332 0 0.841758332"></polygon>
    </defs>
    <g id="PD" stroke="none" stroke-width="1" fill="none" fill-rule="evenodd">
        <g id="Pecka_logo" transform="translate(21.000000, 0.000000)">
            <path d="M46.002887,0.842201835 L46.002887,92.8624842 L0.000886956522,92.8624842 L0.000886956522,112.418762 L0.000886956522,138.871517 L46.002887,138.871517 L46.002887,92.8624842 L92.4195391,92.8624842 C117.43393,92.8624842 138.015757,71.6630264 138.015757,46.8556693 C138.015757,22.0483122 117.899583,0.842201835 93.0958435,0.842201835 C93.0130609,0.849593557 77.3154087,0.849593557 46.002887,0.842201835 Z" id="Fill-1" fill="#E9473F"></path>
            <mask id="mask-2" fill="white">
                <use xlink:href="#path-1"></use>
            </mask>
            <g id="Clip-4"></g>
            <path d="M378.406696,145.80303 L385.489043,145.80303 L385.489043,138.871073 L378.406696,138.871073 L378.406696,145.80303 Z M251.614043,174.344685 C251.614043,174.344685 249.378913,179.675594 242.709,180.068095 C236.041304,180.471683 236.498087,175.892511 236.498087,174.695052 C236.498087,173.502028 237.314087,170.064878 244.341,169.370795 C249.574043,168.971642 251.614043,168.718845 251.614043,168.718845 L251.614043,174.344685 Z M257.94913,174.843626 C257.873739,170.441856 257.94913,161.891112 257.94913,161.891112 C257.94913,161.891112 258.481304,151.018628 244.059391,151.018628 C230.626435,151.018628 230.548826,162.376748 230.548826,162.376748 L236.498087,162.376748 C236.498087,162.376748 237.267522,156.334016 244.207957,156.181007 C251.155043,156.032433 251.842435,161.181507 251.691652,163.94675 C242.303217,164.694053 232.531174,164.918022 229.859217,172.681547 C227.954478,178.948249 232.531174,184.50978 239.478261,184.8668 C246.427565,185.21495 250.62287,182.310004 252.226043,180.367459 C253.372435,183.123832 256.190739,184.922238 260.849478,184.844625 L260.849478,179.542543 C260.849478,179.542543 258.026739,179.247614 257.94913,174.843626 Z M446.327609,151.040804 C438.085565,151.406694 435.032217,156.25862 435.032217,156.25862 L434.347043,151.406694 L428.244783,151.406694 L428.244783,184.891193 L435.420261,184.891193 L435.420261,163.263755 C435.420261,163.263755 436.562217,157.076884 445.032652,157.076884 C451.447565,157.378466 451.906565,162.274742 451.906565,168.148943 L451.906565,184.891193 L459,184.891193 L459,161.33008 C459,161.33008 457.323652,150.745874 446.327609,151.040804 Z M407.707304,194.772447 C404.500957,194.772447 398.31887,194.402121 397.864304,189.175435 C397.560522,185.292564 401.148261,184.4743 401.148261,184.4743 L410.91587,184.4743 C410.91587,184.4743 416.257565,184.547478 416.410565,188.953683 C416.563565,193.355454 410.91587,194.772447 407.707304,194.772447 Z M406.718348,156.770866 C410.873739,156.770866 414.235304,159.67803 414.235304,163.263755 C414.235304,166.851696 410.873739,169.754425 406.718348,169.754425 C402.562957,169.754425 399.190304,166.851696 399.190304,163.263755 C399.190304,159.67803 402.562957,156.770866 406.718348,156.770866 Z M416.029174,180.065877 C411.066652,179.019209 407.223913,179.247614 407.223913,179.247614 L401.906609,179.247614 C401.906609,179.247614 398.469652,179.247614 398.015087,176.03665 C397.917522,175.127468 398.806696,174.324727 399.871043,173.699387 C401.891087,174.6884 404.228217,175.251649 406.718348,175.251649 C414.392739,175.251649 420.610304,169.885259 420.610304,163.263755 C420.610304,160.587212 419.596957,158.123551 417.880696,156.127786 C418.490478,155.169819 420.002739,153.389154 422.590435,153.715129 L422.590435,149.093824 C422.590435,149.093824 416.993739,148.291083 414.610043,153.395806 C412.370478,152.058644 409.654174,151.271425 406.718348,151.271425 C399.043957,151.271425 392.826391,156.637815 392.826391,163.263755 C392.826391,166.328362 394.165696,169.124651 396.354261,171.242379 C394.540435,172.475318 388.070087,177.571171 396.110348,182.83112 C393.436174,183.948749 391.300826,186.937961 391.682217,191.044801 C392.061391,195.147207 396.41413,199.996915 406.718348,200.070094 C417.024783,200.145489 421.758913,195.147207 422.590435,191.044801 C423.435261,186.937961 422.056043,181.711274 416.029174,180.065877 Z M378.397826,184.897846 L385.495696,184.897846 L385.495696,151.056326 L378.397826,151.056326 L378.397826,184.897846 Z M361.986913,165.436921 C355.807043,163.800394 353.135087,162.824686 353.059696,159.915305 C352.97987,157.005923 356.509957,156.314058 358.683,156.21427 C360.842739,156.110046 364.887261,156.915005 365.958261,160.65152 L371.83213,160.65152 C371.83213,160.65152 370.991739,150.559603 358.705174,151.056326 C347.028391,151.557485 346.263391,158.420699 346.263391,161.254685 C346.263391,164.095323 348.325565,167.827404 355.654043,169.616939 C362.443696,171.41091 365.501478,172.379965 365.421652,175.961254 C365.195478,178.648884 362.904913,180.591429 359.046652,180.513815 C355.192826,180.440637 351.607304,177.83062 350.844522,174.916804 L344.966217,174.916804 C344.966217,174.916804 346.879826,185.441137 359.164174,185.441137 C369.24,185.441137 372.13813,179.398405 372.368739,175.810463 C372.599348,172.233609 370.614783,167.603434 361.986913,165.436921 Z M316.299783,165.097641 C316.375174,164.34812 317.594739,156.289665 325.539652,156.21427 C334.557783,156.21427 334.77287,165.097641 334.77287,165.097641 L316.299783,165.097641 Z M325.497522,151.060761 C313.778609,151.584095 309.658696,160.01731 309.658696,167.632262 C309.736304,176.36706 314.313,184.350119 326.067391,184.871235 C337.819565,185.399004 340.418348,174.872453 340.418348,174.872453 L334.695261,174.872453 C334.231826,175.914686 331.721739,179.799775 325.615043,179.799775 C317.060348,179.274224 316.219957,169.949567 316.219957,169.949567 L341.331913,169.949567 C342.25213,158.673495 336.143217,150.83901 325.497522,151.060761 Z M283.595478,179.096822 L273.448696,179.096897 L273.448696,144.90937 L280.768304,144.90937 C287.63113,144.765232 298.327826,147.747792 298.405435,162.006423 C297.944217,179.323009 283.595478,179.096822 283.595478,179.096822 Z M280.768304,138.942034 C268.639174,138.786807 266.501609,138.942034 266.501609,138.942034 L266.501609,184.898108 L283.214087,184.897846 C283.214087,184.897846 303.824739,185.221603 305.12413,163.124051 C305.580913,145.434922 292.890783,139.08839 280.768304,138.942034 Z M225.663913,151.027499 L217.723435,151.027499 L206.430261,164.618657 L206.430261,138.942034 L199.174957,138.942034 L199.174957,184.846843 L206.199652,184.846843 L206.199652,169.463931 L219.634826,184.846843 L227.575304,184.846843 L211.924957,166.929309 L225.663913,151.027499 Z M177.825913,156.706558 C185.362826,156.036868 187.342957,161.707058 187.502609,162.97326 L193.755652,162.97326 C193.755652,162.97326 191.848696,150.648303 178.034348,151.027499 C165.818739,151.479872 161.470435,161.270207 161.927217,167.947149 C162.157826,174.244896 165.058174,184.693834 178.187348,185.221603 C187.342957,185.370177 192.990652,179.398405 193.755652,172.67933 L187.502609,172.67933 C187.502609,172.67933 185.821826,179.172218 178.415739,179.398405 C171.007435,179.620156 168.572739,172.67046 168.719087,168.122333 C168.872087,163.571989 170.291217,157.378466 177.825913,156.706558 Z M133.15213,165.066596 C133.227522,164.319292 134.451522,156.25862 142.394217,156.181007 C151.407913,156.181007 151.627435,165.066596 151.627435,165.066596 L133.15213,165.066596 Z M142.34987,151.034151 C130.633174,151.557485 126.506609,159.9907 126.506609,167.603434 C126.59087,176.336014 131.165348,184.325726 142.924174,184.844625 C154.676348,185.370177 157.270696,174.841408 157.270696,174.841408 L151.549826,174.841408 C151.093043,175.888076 148.576304,179.770947 142.467391,179.770947 C133.912696,179.247614 133.076739,169.916304 133.076739,169.916304 L158.186478,169.916304 C159.102261,158.644668 152.997783,150.807964 142.34987,151.034151 Z M112.614652,161.181507 L98.9533043,161.181507 L98.9533043,144.614441 L111.168913,144.614441 C112.849696,144.614441 119.488565,145.355091 119.488565,152.896865 C119.488565,160.438639 112.614652,161.181507 112.614652,161.181507 Z M111.319696,138.942034 L92.0084348,138.942034 L92.0084348,184.844625 L98.877913,184.844625 L98.877913,166.853914 L112.614652,166.853914 C112.614652,166.853914 125.597478,166.335015 125.597478,153.047656 C125.517652,140.880143 115.599261,138.942034 111.319696,138.942034 Z" id="Fill-3" fill="#E9473F" mask="url(#mask-2)"></path>
        </g>
    </g>
</svg>